<svg xmlns="http://www.w3.org/2000/svg" xmlns:xlink="http://www.w3.org/1999/xlink" id="Layer_2" viewBox="0 0 695.32 372.61"><defs><style>.cls-1{fill:none;stroke:#fff;stroke-linecap:round;stroke-linejoin:round;}.cls-2{fill:url(#linear-gradient);}.cls-2,.cls-3,.cls-4{stroke-width:0px;}.cls-3{fill:url(#linear-gradient-2);}.cls-4{fill:#fff;}</style><linearGradient id="linear-gradient" x1=".5" y1="170.65" x2="694.82" y2="170.65" gradientUnits="userSpaceOnUse"><stop offset="0" stop-color="#ca3cda"></stop><stop offset="1" stop-color="#941cbf"></stop></linearGradient><linearGradient id="linear-gradient-2" x1="311.98" y1="116.59" x2="378.78" y2="410.24" gradientUnits="userSpaceOnUse"><stop offset=".13" stop-color="#fff" stop-opacity=".3"></stop><stop offset=".17" stop-color="#fff" stop-opacity=".26"></stop><stop offset=".3" stop-color="#fff" stop-opacity=".15"></stop><stop offset=".43" stop-color="#fff" stop-opacity=".07"></stop><stop offset=".56" stop-color="#fff" stop-opacity=".02"></stop><stop offset=".68" stop-color="#fff" stop-opacity="0"></stop></linearGradient></defs><g id="Logos"><g id="Line_Histogram"><path class="cls-2" d="m115.02,341.3c-.64,0-1.27-.02-1.89-.05l.04-1c.91.05,1.83.06,2.75.03l.03,1c-.31,0-.62.01-.93.01Zm3.72-.21l-.1-.99c.9-.1,1.81-.25,2.69-.43l.18.98c-.91.19-1.84.34-2.77.45Zm-8.42-.09c-.93-.12-1.87-.28-2.78-.47l.18-.98c.89.19,1.8.34,2.71.46l-.11.99Zm13.92-1.05l-.25-.96c.87-.26,1.75-.57,2.6-.9l.32.94c-.88.35-1.78.66-2.67.93Zm-19.43-.1c-.9-.26-1.8-.56-2.68-.89l.3-.95c.86.32,1.74.61,2.62.87l-.24.96Zm-5.31-1.96c-.86-.39-1.72-.81-2.56-1.26l.41-.9c.82.44,1.67.86,2.5,1.24l-.36.92Zm30.01-.01l-.38-.91c.82-.4,1.65-.85,2.45-1.32l.44.88c-.82.48-1.67.94-2.51,1.35Zm-35.04-2.67c-.8-.49-1.6-1.02-2.4-1.57l.5-.84c.78.54,1.57,1.06,2.35,1.54l-.46.87Zm39.97-.21l-.5-.85c.76-.52,1.53-1.08,2.28-1.66l.54.81c-.76.59-1.55,1.17-2.32,1.7Zm-44.69-3.06c-.75-.58-1.5-1.19-2.24-1.82l.57-.79c.73.62,1.46,1.21,2.21,1.79l-.54.81Zm49.24-.48l-.58-.78c.69-.6,1.4-1.25,2.1-1.93l.62.75c-.71.69-1.43,1.34-2.14,1.96Zm-53.65-3.25c-.7-.65-1.4-1.32-2.09-2l.63-.73c.68.68,1.37,1.34,2.07,1.98l-.6.76Zm57.83-.77l-.65-.71c.65-.69,1.29-1.4,1.93-2.13l.68.69c-.65.74-1.3,1.46-1.96,2.16Zm-61.95-3.32c-.66-.7-1.31-1.42-1.96-2.15l.67-.69c.64.72,1.29,1.43,1.94,2.13l-.65.71Zm65.79-1.08l-.7-.66c.6-.74,1.2-1.5,1.79-2.28l.72.63c-.6.79-1.2,1.56-1.81,2.31Zm-69.65-3.28c-.62-.74-1.24-1.49-1.85-2.26l.7-.65c.61.76,1.22,1.51,1.83,2.24l-.69.67Zm73.2-1.39l-.74-.61c.56-.78,1.11-1.58,1.66-2.39l.75.59c-.55.82-1.11,1.63-1.67,2.42Zm-76.84-3.18c-.59-.77-1.17-1.55-1.75-2.34l.73-.62c.58.79,1.16,1.56,1.74,2.33l-.72.63Zm80.13-1.7l-.77-.57c.52-.81,1.04-1.64,1.55-2.48l.78.55c-.52.85-1.03,1.68-1.56,2.5Zm-83.6-3.02c-.56-.79-1.12-1.6-1.67-2.41l.75-.59c.55.81,1.11,1.61,1.67,2.4l-.74.61Zm86.66-2.02l-.79-.53c.49-.84.97-1.69,1.45-2.55l.8.51c-.48.87-.97,1.72-1.46,2.57Zm-89.98-2.83c-.54-.81-1.08-1.63-1.61-2.46l.76-.57c.53.82,1.07,1.64,1.6,2.45l-.76.58Zm92.86-2.33l-.8-.5c.46-.86.92-1.73,1.37-2.61l.81.49c-.46.88-.92,1.76-1.38,2.62Zm-96.05-2.61c-.52-.83-1.04-1.66-1.56-2.5l.77-.55c.52.83,1.03,1.66,1.55,2.49l-.77.56Zm98.77-2.65l-.82-.47c.44-.87.87-1.75,1.3-2.65l.82.46c-.43.9-.87,1.78-1.31,2.66Zm-101.86-2.36c-.51-.84-1.01-1.68-1.52-2.52l.78-.54c.5.84,1.01,1.68,1.51,2.52l-.78.55Zm104.44-2.98l-.83-.45c.42-.89.83-1.78,1.24-2.68l.83.44c-.41.91-.83,1.8-1.24,2.69Zm-107.46-2.07c-.5-.84-1-1.69-1.49-2.54l.79-.53c.49.85.99,1.69,1.49,2.54l-.78.54Zm109.93-3.33l-.84-.43c.4-.9.79-1.8,1.19-2.71l.84.42c-.39.91-.79,1.82-1.19,2.72Zm-112.9-1.77l-1.47-2.55.79-.53,1.47,2.55-.79.53Zm115.26-3.68l-.85-.41c.38-.91.76-1.82,1.14-2.73l.85.41c-.38.92-.76,1.83-1.15,2.74Zm-118.21-1.42l-1.46-2.55.79-.53,1.46,2.55-.79.53Zm120.48-4.07l-.85-.4c.37-.91.74-1.83,1.1-2.75l.85.39c-.37.93-.74,1.85-1.11,2.76Zm-123.41-1.03l-1.47-2.55.79-.53,1.47,2.55-.79.53Zm125.61-4.49l-.86-.39c.36-.92.72-1.84,1.07-2.77l.86.38c-.36.93-.72,1.85-1.07,2.77Zm-128.56-.6c-.5-.85-.99-1.7-1.49-2.54l.78-.54c.5.84.99,1.69,1.49,2.54l-.79.53Zm359.1-3.34c-.6,0-1.19,0-1.78-.03l.03-1c.91.03,1.84.04,2.76.02l.02,1c-.34,0-.68.01-1.03.01Zm3.82-.15l-.07-1c.92-.07,1.84-.17,2.73-.3l.12.99c-.91.13-1.85.23-2.78.31Zm-8.4-.04c-.94-.08-1.88-.18-2.79-.31l.12-.99c.9.12,1.82.23,2.74.31l-.07,1Zm13.95-.75l-.17-.98c.9-.19,1.8-.4,2.68-.64l.23.97c-.9.25-1.82.46-2.73.65Zm-19.51-.02c-.91-.18-1.83-.38-2.74-.62l.21-.97c.89.23,1.8.43,2.69.6l-.17.98Zm-218.27-.65l-.86-.38c.35-.92.7-1.85,1.05-2.78l.86.37c-.35.93-.7,1.86-1.05,2.79Zm-133.68-.11c-.51-.85-1.01-1.68-1.52-2.52l.78-.55c.51.83,1.01,1.67,1.52,2.52l-.78.54Zm346.5-.62c-.9-.28-1.79-.59-2.67-.92l.31-.94c.86.32,1.74.63,2.62.91l-.26.96Zm30.39-.07l-.28-.95c.87-.3,1.74-.63,2.59-.98l.33.93c-.87.36-1.76.69-2.64,1Zm-35.67-1.93c-.86-.38-1.72-.79-2.56-1.22l.4-.9c.82.42,1.67.83,2.52,1.2l-.36.92Zm40.9-.23l-.38-.91c.83-.41,1.67-.84,2.47-1.29l.43.89c-.82.46-1.67.91-2.52,1.32Zm-385.16-2.17c-.52-.84-1.04-1.66-1.56-2.48l.77-.56c.52.82,1.04,1.65,1.56,2.49l-.77.55Zm339.2-.19c-.81-.47-1.63-.97-2.43-1.5l.48-.86c.79.51,1.6,1.01,2.39,1.47l-.44.88Zm-200.39-.25l-.86-.37c.34-.93.68-1.86,1.02-2.79l.86.37c-.34.93-.68,1.87-1.02,2.79Zm251.33-.17l-.47-.86c.78-.5,1.57-1.03,2.33-1.58l.52.83c-.78.56-1.58,1.1-2.37,1.61Zm-55.72-2.69c-.77-.56-1.54-1.14-2.3-1.74l.55-.8c.74.59,1.5,1.16,2.26,1.71l-.52.83Zm60.39-.65l-.55-.8c.73-.58,1.46-1.19,2.18-1.82l.58.78c-.73.64-1.48,1.26-2.22,1.84Zm-397.95-.99c-.54-.82-1.08-1.64-1.62-2.44l.75-.59c.54.81,1.08,1.62,1.62,2.45l-.76.58Zm143.99-1.09l-.87-.36c.34-.93.67-1.86,1-2.8l.87.36c-.33.94-.67,1.87-1,2.8Zm189.05-.84c-.72-.63-1.44-1.27-2.15-1.94l.61-.75c.7.65,1.4,1.29,2.12,1.91l-.58.78Zm69.26-.87l-.61-.75c.69-.65,1.36-1.33,2.03-2.02l.64.72c-.68.7-1.36,1.38-2.06,2.04Zm-405.57-2.05c-.56-.8-1.13-1.6-1.69-2.37l.73-.62c.57.78,1.14,1.58,1.7,2.39l-.74.6Zm332.08-1.05c-.68-.68-1.34-1.39-2.01-2.1l.66-.71c.65.71,1.31,1.4,1.98,2.08l-.64.73Zm-182.83-.8l-.87-.36.99-2.81.87.35-.99,2.81Zm260.36-.28l-.67-.7c.64-.71,1.27-1.43,1.89-2.18l.69.67c-.63.75-1.27,1.49-1.91,2.2Zm-413.04-2.58c-.59-.78-1.19-1.54-1.79-2.28l.7-.66c.61.75,1.21,1.52,1.81,2.3l-.72.64Zm331.57-.62c-.63-.73-1.26-1.48-1.87-2.24l.7-.66c.61.75,1.23,1.49,1.86,2.21l-.68.68Zm85.22-1.28l-.71-.65c.59-.75,1.18-1.52,1.76-2.31l.73.62c-.58.79-1.18,1.57-1.77,2.33Zm-262.14-.87l-.87-.35.97-2.8.87.35-.97,2.8Zm-158.3-1.73c-.64-.74-1.28-1.46-1.92-2.15l.66-.71c.65.7,1.3,1.43,1.94,2.18l-.68.68Zm331.53-.65c-.59-.77-1.18-1.55-1.76-2.34l.73-.62c.57.79,1.15,1.56,1.74,2.32l-.71.64Zm92.4-1.47l-.74-.6c.55-.79,1.1-1.59,1.64-2.41l.76.58c-.54.83-1.09,1.64-1.65,2.43Zm-263.69-1.76l-.87-.35.96-2.81.87.35-.97,2.81Zm-164.15-.34c-.7-.69-1.39-1.35-2.08-1.96l.59-.77c.69.62,1.4,1.29,2.11,1.99l-.63.74Zm331.98-1.17c-.55-.8-1.1-1.61-1.65-2.43l.76-.58c.54.81,1.09,1.62,1.64,2.41l-.74.6Zm99.1-1.64l-.77-.56c.51-.82,1.02-1.65,1.53-2.5l.78.54c-.51.85-1.02,1.69-1.54,2.52Zm-435.32-.99c-.75-.6-1.51-1.17-2.26-1.69l.5-.84c.77.53,1.55,1.11,2.31,1.72l-.55.8Zm170.32-1.5l-.87-.34.96-2.82.87.34-.96,2.82Zm162.65-.77c-.52-.83-1.04-1.66-1.55-2.5l.78-.55c.51.84,1.03,1.67,1.55,2.49l-.77.56Zm-337.6-.92c-.82-.48-1.64-.91-2.46-1.3l.37-.92c.84.39,1.69.84,2.53,1.33l-.44.88Zm442.97-.88l-.79-.52c.48-.84.96-1.7,1.43-2.56l.8.51c-.47.87-.95,1.73-1.44,2.58Zm-447.98-1.46c-.87-.31-1.75-.57-2.63-.77l.2-.98c.9.21,1.82.48,2.72.8l-.29.95Zm-5.3-1.24c-.9-.11-1.81-.16-2.71-.16v-1c.94,0,1.88.06,2.81.16l-.1.99Zm187.18-.37l-.87-.34.96-2.83.87.34-.96,2.83Zm157.66-.16c-.5-.84-.99-1.7-1.47-2.56l.79-.52c.48.86.97,1.7,1.47,2.54l-.78.54Zm111.27-1.96l-.81-.49c.45-.86.9-1.74,1.35-2.62l.82.48c-.45.89-.9,1.77-1.35,2.63Zm-114.19-3.18c-.47-.86-.94-1.73-1.4-2.6l.81-.5c.46.87.93,1.73,1.4,2.59l-.8.51Zm-152.83-.36l-.87-.34.96-2.82.87.34-.96,2.82Zm269.69-1.75l-.82-.46c.43-.88.85-1.77,1.27-2.66l.83.45c-.42.9-.85,1.79-1.28,2.68Zm-119.63-3.11c-.45-.87-.9-1.75-1.34-2.64l.82-.48c.44.88.89,1.76,1.34,2.63l-.81.49Zm-148.14-.77l-.87-.34.96-2.82.87.35-.96,2.82Zm270.29-1.49l-.83-.44c.4-.89.81-1.79,1.2-2.7l.84.43c-.4.91-.8,1.82-1.21,2.71Zm-124.81-3.03c-.43-.88-.86-1.77-1.29-2.66l.82-.46c.43.89.86,1.77,1.29,2.66l-.82.47Zm-143.55-1.12l-.87-.35.97-2.82.87.35-.97,2.81Zm270.75-1.29l-.84-.42c.38-.9.77-1.81,1.15-2.73l.85.41c-.38.92-.76,1.83-1.15,2.74Zm-129.76-2.93c-.42-.89-.84-1.79-1.25-2.69l.83-.45c.41.9.83,1.79,1.25,2.68l-.83.45Zm-139.05-1.41l-.87-.35.98-2.81.87.35-.98,2.81Zm271.08-1.16l-.85-.4c.37-.91.73-1.83,1.09-2.76l.86.39c-.36.93-.73,1.85-1.1,2.77Zm-134.53-2.81c-.41-.9-.82-1.8-1.22-2.7l.84-.44c.4.9.81,1.8,1.22,2.7l-.83.44Zm-134.59-1.65l-.87-.35.99-2.81.87.36-.99,2.8Zm271.29-1.08l-.86-.38c.35-.92.7-1.85,1.05-2.78l.86.37c-.35.93-.7,1.86-1.05,2.79Zm-139.13-2.68c-.4-.9-.8-1.81-1.2-2.71l.84-.43c.4.91.8,1.81,1.19,2.71l-.84.43Zm-130.18-1.84l-.87-.36,1.01-2.8.87.36-1.01,2.8Zm271.38-1.05l-.87-.37c.34-.93.67-1.86,1.01-2.79l.87.36c-.33.94-.67,1.87-1.01,2.8Zm-143.6-2.55l-1.18-2.73.84-.42,1.18,2.72-.84.42Zm-125.76-1.99l-.86-.37c.34-.93.69-1.87,1.03-2.79l.86.37c-.34.93-.69,1.85-1.03,2.79Zm271.36-1.08l-.87-.35c.33-.93.65-1.87.97-2.81l.87.35c-.32.94-.65,1.88-.97,2.82Zm-147.96-2.38l-1.17-2.72.84-.42,1.17,2.72-.84.42Zm-121.33-2.11l-.86-.38c.35-.93.7-1.86,1.06-2.78l.86.38c-.35.92-.7,1.85-1.05,2.78Zm271.22-1.14l-.87-.34c.31-.94.63-1.88.94-2.82l.87.34c-.31.95-.63,1.89-.94,2.83Zm-152.23-2.18l-1.17-2.72.84-.42,1.17,2.72-.84.42Zm-116.87-2.22l-.86-.39c.36-.93.72-1.85,1.09-2.77l.85.39c-.36.92-.72,1.84-1.08,2.76Zm270.97-1.26l-.88-.33c.31-.94.61-1.89.91-2.83l.88.33c-.3.95-.61,1.89-.92,2.84Zm-156.45-1.97l-1.18-2.72.84-.42,1.18,2.72-.84.42Zm-112.34-2.29l-.85-.4c.37-.92.75-1.84,1.12-2.75l.85.4c-.37.91-.75,1.83-1.12,2.75Zm270.61-1.42l-.88-.32c.3-.95.6-1.89.89-2.84l.88.32c-.3.95-.59,1.9-.89,2.85Zm-160.63-1.72c-.4-.91-.8-1.81-1.2-2.71l.84-.43c.4.9.8,1.81,1.2,2.71l-.84.43Zm-107.72-2.34l-.85-.41c.39-.92.77-1.83,1.16-2.73l.84.42c-.39.9-.77,1.81-1.16,2.73Zm270.13-1.63l-.88-.31c.29-.95.58-1.9.87-2.85l.88.31c-.29.95-.58,1.9-.87,2.85Zm-164.81-1.44c-.41-.9-.81-1.8-1.22-2.7l.83-.44c.41.9.82,1.8,1.22,2.7l-.84.44Zm-102.98-2.37l-.84-.43c.4-.91.8-1.81,1.21-2.71l.83.44c-.4.89-.81,1.79-1.21,2.7Zm269.53-1.9l-.88-.31.85-2.84.88.31-.85,2.85Zm-169.01-1.11c-.42-.9-.84-1.79-1.26-2.68l.83-.46c.42.89.84,1.78,1.26,2.68l-.83.45Zm-98.08-2.37l-.83-.45c.42-.9.84-1.8,1.27-2.68l.83.46c-.42.88-.84,1.77-1.26,2.67Zm268.79-2.22l-.89-.3.84-2.86.89.3-.84,2.86Zm-173.24-.75c-.43-.89-.87-1.77-1.3-2.65l.82-.47c.44.88.87,1.76,1.31,2.66l-.82.46Zm-92.99-2.35l-.82-.47c.44-.89.89-1.77,1.33-2.64l.81.48c-.44.87-.89,1.74-1.33,2.63Zm474.76-.48c-.95-.03-1.88-.09-2.8-.16l.07-1c.91.07,1.83.13,2.76.16l-.03,1Zm-5.59-.45c-.93-.12-1.86-.27-2.77-.43l.15-.99c.9.16,1.82.31,2.73.42l-.11.99Zm-5.52-1.01c-.92-.22-1.83-.46-2.72-.72l.25-.96c.87.26,1.77.5,2.67.71l-.2.98Zm-195.74-.67l-.89-.3.83-2.87.89.3-.83,2.87Zm-177.56-.31c-.45-.88-.91-1.75-1.36-2.61l.81-.5c.46.87.92,1.74,1.37,2.62l-.81.48Zm367.89-.62c-.88-.31-1.77-.66-2.64-1.03l.34-.93c.85.36,1.72.7,2.59,1.01l-.29.95Zm-455.56-1.7l-.81-.5c.47-.88.94-1.74,1.41-2.6l.8.51c-.47.85-.94,1.71-1.4,2.58Zm450.35-.51c-.84-.41-1.69-.86-2.52-1.32l.43-.89c.81.46,1.65.9,2.47,1.3l-.38.91Zm-365.44-2.38c-.48-.86-.96-1.72-1.44-2.56l.79-.53c.49.85.97,1.71,1.45,2.58l-.8.51Zm181.98-.23l-.89-.3.83-2.88.89.3-.83,2.88Zm178.49-.18c-.8-.51-1.59-1.04-2.38-1.6l.51-.83c.77.55,1.55,1.08,2.33,1.57l-.47.86Zm-442.53-1.84l-.79-.53c.5-.86,1-1.71,1.5-2.54l.78.55c-.5.83-1,1.67-1.49,2.52Zm437.86-1.49c-.74-.59-1.48-1.21-2.21-1.85l.59-.78c.72.63,1.45,1.24,2.18,1.82l-.55.8Zm-358.73-1.35c-.51-.84-1.02-1.68-1.53-2.5l.77-.56c.52.82,1.03,1.66,1.54,2.51l-.78.54Zm186.55-.89l-.89-.29.82-2.87.89.29-.82,2.87Zm-262.66-1.29l-.77-.56c.53-.84,1.07-1.66,1.61-2.47l.75.58c-.54.8-1.07,1.61-1.59,2.44Zm430.49-.29c-.7-.67-1.38-1.36-2.05-2.06l.65-.72c.66.7,1.34,1.37,2.03,2.03l-.62.75Zm-357.5-2.49c-.54-.82-1.09-1.62-1.64-2.41l.74-.6c.56.79,1.11,1.6,1.66,2.43l-.76.58Zm191.31-1.67l-.89-.29.82-2.87.89.29-.82,2.87Zm162.17-.04c-.64-.73-1.27-1.47-1.89-2.23l.7-.66c.61.75,1.23,1.48,1.86,2.2l-.67.69Zm-423.22-.34l-.74-.61c.57-.81,1.15-1.6,1.73-2.37l.72.63c-.58.76-1.15,1.54-1.71,2.34Zm66.4-2.69c-.59-.78-1.18-1.54-1.78-2.29l.7-.66c.61.75,1.2,1.52,1.8,2.31l-.72.63Zm353.13-1.49c-.59-.77-1.17-1.56-1.74-2.36l.74-.61c.56.79,1.14,1.57,1.72,2.34l-.72.63Zm-416.03-.44l-.7-.66c.62-.77,1.25-1.51,1.88-2.24l.68.68c-.62.72-1.24,1.45-1.85,2.21Zm259.2-.72l-.89-.29.82-2.87.89.29-.82,2.87Zm-199.93-1.85c-.64-.73-1.29-1.45-1.93-2.12l.65-.72c.66.69,1.32,1.41,1.96,2.16l-.68.68Zm-55.49-1.76l-.65-.71c.68-.71,1.36-1.41,2.04-2.06l.62.75c-.67.64-1.35,1.33-2.01,2.03Zm408.84,0c-.54-.81-1.07-1.63-1.6-2.47l.77-.56c.52.83,1.05,1.64,1.59,2.45l-.75.58Zm-151.78-2.12l-.89-.3.82-2.87.89.3-.82,2.87Zm-205.53-.26c-.7-.66-1.41-1.3-2.11-1.9l.58-.78c.72.61,1.44,1.26,2.15,1.94l-.61.75Zm-47.42-1.56l-.58-.78c.74-.64,1.49-1.26,2.23-1.82l.54.81c-.73.56-1.46,1.16-2.19,1.79Zm401.59-1.04c-.5-.84-1-1.69-1.48-2.55l.79-.52c.48.85.97,1.7,1.47,2.53l-.78.54Zm-358.49-1.06c-.76-.57-1.54-1.11-2.3-1.61l.48-.86c.79.51,1.58,1.06,2.36,1.65l-.53.82Zm-38.62-1.33l-.49-.85c.8-.54,1.62-1.04,2.43-1.51l.44.88c-.79.45-1.59.95-2.37,1.48Zm250.13-.48l-.89-.3.83-2.87.89.3-.83,2.86Zm-216.21-1.24c-.82-.45-1.65-.87-2.49-1.24l.36-.92c.85.38,1.71.81,2.55,1.27l-.42.89Zm360.28-1.03c-.47-.86-.93-1.74-1.38-2.62l.81-.49c.45.87.91,1.74,1.37,2.6l-.8.5Zm-389.37-.01l-.37-.92c.86-.41,1.74-.78,2.61-1.11l.31.94c-.85.32-1.7.68-2.54,1.08Zm24.04-1.22c-.86-.3-1.75-.57-2.63-.8l.22-.97c.9.23,1.81.51,2.7.82l-.29.95Zm-18.89-.71l-.23-.97c.91-.25,1.83-.47,2.75-.63l.16.99c-.89.16-1.79.37-2.67.62Zm13.58-.66c-.89-.15-1.81-.26-2.72-.34l.07-1c.93.08,1.87.19,2.79.35l-.14.99Zm-8.19-.33l-.08-1c.93-.08,1.88-.13,2.82-.13v1c-.91,0-1.84.04-2.74.12Zm236.42-.52l-.89-.3.84-2.86.89.3-.84,2.86Zm139.69-1.81c-.44-.88-.87-1.77-1.29-2.67l.83-.46c.42.89.85,1.77,1.29,2.65l-.82.47Zm-138-3.91l-.89-.31.86-2.86.88.31-.86,2.86Zm135.45-1.44c-.41-.9-.82-1.8-1.22-2.71l.84-.43c.4.9.81,1.8,1.22,2.69l-.83.44Zm-133.73-4.27l-.88-.31c.29-.95.58-1.9.87-2.85l.88.31c-.29.95-.58,1.9-.87,2.85Zm131.32-1.16c-.39-.91-.78-1.82-1.17-2.73l.85-.41c.38.91.77,1.82,1.16,2.72l-.84.42Zm-129.56-4.54l-.88-.32.89-2.85.88.32-.89,2.84Zm127.25-.94c-.38-.92-.75-1.83-1.12-2.75l.85-.4c.37.92.74,1.83,1.12,2.75l-.85.4Zm-125.45-4.74l-.88-.33c.31-.95.61-1.89.92-2.84l.88.33c-.31.94-.61,1.88-.92,2.83Zm123.23-.78c-.36-.92-.73-1.84-1.09-2.77l.86-.39c.36.92.72,1.84,1.09,2.76l-.85.39Zm-121.38-4.88l-.87-.34c.31-.95.63-1.89.95-2.83l.87.34c-.32.93-.63,1.87-.95,2.82Zm119.21-.66l-1.07-2.78.86-.38,1.07,2.78-.86.38Zm-117.3-4.97l-.87-.35c.33-.94.66-1.88.98-2.81l.87.36c-.33.93-.66,1.86-.98,2.81Zm115.16-.59l-1.06-2.77.86-.38,1.06,2.77-.86.38Zm-113.18-5.02l-.87-.36c.34-.94.68-1.87,1.03-2.8l.86.37c-.34.92-.68,1.85-1.02,2.79Zm111.06-.53l-1.06-2.77.86-.38,1.06,2.78-.86.38Zm-109-5.04l-.86-.38c.36-.93.71-1.86,1.07-2.77l.86.39c-.36.91-.72,1.84-1.07,2.77Zm106.86-.51c-.36-.93-.72-1.85-1.08-2.77l.86-.39c.36.92.72,1.84,1.08,2.77l-.86.38Zm-104.7-5.01l-.85-.4c.37-.93.75-1.84,1.13-2.75l.85.41c-.38.9-.75,1.82-1.12,2.74Zm102.52-.51c-.37-.92-.74-1.84-1.11-2.75l.85-.4c.37.91.74,1.83,1.11,2.76l-.85.39Zm-100.25-4.95l-.84-.42c.39-.92.79-1.82,1.19-2.72l.84.43c-.4.89-.8,1.8-1.19,2.71Zm98.01-.54c-.38-.92-.77-1.83-1.15-2.73l.84-.42c.39.91.77,1.82,1.16,2.74l-.85.41Zm-95.6-4.86l-.83-.45c.42-.9.84-1.8,1.27-2.68l.82.46c-.42.88-.84,1.77-1.26,2.67Zm93.27-.59c-.4-.91-.8-1.81-1.21-2.7l.83-.44c.41.89.82,1.8,1.22,2.71l-.84.43Zm-90.71-4.72l-.82-.48c.45-.89.9-1.77,1.35-2.63l.81.49c-.45.86-.9,1.73-1.35,2.62Zm88.25-.65c-.43-.89-.86-1.78-1.29-2.65l.82-.47c.44.88.87,1.77,1.3,2.67l-.83.46Zm-85.51-4.55l-.8-.51c.48-.87.97-1.73,1.46-2.57l.79.53c-.49.84-.97,1.69-1.44,2.55Zm82.89-.72c-.46-.88-.92-1.74-1.39-2.59l.8-.51c.47.86.94,1.73,1.4,2.61l-.81.49Zm-79.94-4.34l-.77-.55c.52-.85,1.04-1.68,1.57-2.49l.76.57c-.52.81-1.04,1.63-1.56,2.47Zm77.11-.8c-.5-.85-1-1.69-1.51-2.51l.77-.56c.52.83,1.02,1.67,1.52,2.53l-.79.53Zm-73.93-4.08l-.74-.6c.56-.81,1.13-1.61,1.71-2.38l.73.62c-.57.77-1.13,1.55-1.69,2.36Zm70.84-.87c-.54-.81-1.09-1.61-1.66-2.39l.73-.61c.57.79,1.13,1.59,1.68,2.42l-.75.58Zm-67.38-3.78l-.7-.65c.61-.77,1.24-1.52,1.87-2.25l.68.68c-.62.72-1.24,1.46-1.84,2.22Zm63.99-.93c-.61-.77-1.22-1.52-1.83-2.23l.68-.68c.62.72,1.24,1.48,1.86,2.26l-.71.65Zm-60.22-3.42l-.65-.71c.68-.72,1.37-1.41,2.04-2.06l.62.75c-.67.64-1.34,1.32-2.01,2.03Zm56.46-.94c-.67-.7-1.35-1.38-2.03-2.01l.61-.75c.69.65,1.38,1.34,2.06,2.05l-.65.72Zm-52.35-3l-.58-.78c.73-.63,1.49-1.24,2.24-1.82l.54.82c-.73.56-1.47,1.16-2.19,1.78Zm48.2-.89c-.73-.61-1.49-1.19-2.23-1.73l.52-.83c.76.55,1.53,1.14,2.28,1.77l-.57.79Zm-43.72-2.52l-.49-.85c.8-.53,1.62-1.04,2.43-1.51l.44.88c-.8.46-1.6.95-2.38,1.47Zm39.16-.77c-.79-.49-1.61-.95-2.42-1.38l.4-.9c.84.43,1.67.91,2.48,1.41l-.46.87Zm-34.32-1.99l-.38-.91c.86-.41,1.73-.79,2.6-1.12l.31.94c-.85.33-1.7.69-2.54,1.09Zm29.39-.56c-.84-.36-1.71-.68-2.58-.97l.27-.96c.89.3,1.79.63,2.65,1l-.34.93Zm-24.24-1.42l-.25-.96c.9-.27,1.82-.5,2.73-.69l.18.98c-.89.19-1.79.41-2.66.67Zm19.01-.32c-.88-.22-1.78-.4-2.69-.56l.14-.99c.93.16,1.85.35,2.75.57l-.21.97Zm-13.64-.81l-.11-.99c.93-.12,1.87-.2,2.81-.24l.04,1c-.91.04-1.84.12-2.74.24Zm8.23-.1c-.9-.08-1.82-.14-2.74-.16l.02-1c.94.02,1.88.08,2.8.16l-.08,1Z"></path></g><g id="Line_Chart"><polygon class="cls-3" points=".5 200.38 34.61 181.94 92.68 233.1 140.56 210.96 243.34 288.2 306.8 261.53 393.67 184.55 471.13 151.35 552.3 171.79 629.46 137.14 694.82 174.27 694.82 372.61 .5 372.61 .5 200.38"></polygon><circle class="cls-4" cx="34.6" cy="181.64" r="1.48"></circle><path class="cls-4" d="m34.6,184.55c-1.61,0-2.91-1.31-2.91-2.91s1.31-2.91,2.91-2.91,2.91,1.31,2.91,2.91-1.31,2.91-2.91,2.91Zm0-5.39c-1.36,0-2.47,1.11-2.47,2.47s1.11,2.47,2.47,2.47,2.47-1.11,2.47-2.47-1.11-2.47-2.47-2.47Z"></path><path class="cls-4" d="m142.04,211.2c0,.82-.66,1.48-1.48,1.48s-1.48-.66-1.48-1.48.66-1.48,1.48-1.48,1.48.66,1.48,1.48Z"></path><path class="cls-4" d="m140.56,214.12c-1.61,0-2.91-1.31-2.91-2.91s1.31-2.91,2.91-2.91,2.91,1.31,2.91,2.91-1.31,2.91-2.91,2.91Zm0-5.39c-1.36,0-2.47,1.11-2.47,2.47s1.11,2.47,2.47,2.47,2.47-1.11,2.47-2.47-1.11-2.47-2.47-2.47Z"></path><circle class="cls-4" cx="243.47" cy="288.2" r="1.48"></circle><path class="cls-4" d="m243.47,291.12c-1.61,0-2.91-1.31-2.91-2.91s1.31-2.91,2.91-2.91,2.91,1.31,2.91,2.91-1.31,2.91-2.91,2.91Zm0-5.39c-1.36,0-2.47,1.11-2.47,2.47s1.11,2.47,2.47,2.47,2.47-1.11,2.47-2.47-1.11-2.47-2.47-2.47Z"></path><circle class="cls-4" cx="306.8" cy="261.53" r="1.48"></circle><path class="cls-4" d="m306.8,264.44c-1.61,0-2.91-1.31-2.91-2.91s1.31-2.91,2.91-2.91,2.91,1.31,2.91,2.91-1.31,2.91-2.91,2.91Zm0-5.39c-1.36,0-2.47,1.11-2.47,2.47s1.11,2.47,2.47,2.47,2.47-1.11,2.47-2.47-1.11-2.47-2.47-2.47Z"></path><circle class="cls-4" cx="393.77" cy="184.55" r="1.48"></circle><path class="cls-4" d="m393.77,187.47c-1.61,0-2.91-1.31-2.91-2.91s1.31-2.91,2.91-2.91,2.91,1.31,2.91,2.91-1.31,2.91-2.91,2.91Zm0-5.39c-1.36,0-2.47,1.11-2.47,2.47s1.11,2.47,2.47,2.47,2.47-1.11,2.47-2.47-1.11-2.47-2.47-2.47Z"></path><circle class="cls-4" cx="629.45" cy="137.14" r="1.48"></circle><path class="cls-4" d="m629.45,140.06c-1.61,0-2.91-1.31-2.91-2.91s1.31-2.91,2.91-2.91,2.91,1.31,2.91,2.91-1.31,2.91-2.91,2.91Zm0-5.39c-1.36,0-2.47,1.11-2.47,2.47s1.11,2.47,2.47,2.47,2.47-1.11,2.47-2.47-1.11-2.47-2.47-2.47Z"></path><path class="cls-4" d="m472.69,151.34c0,.82-.66,1.48-1.48,1.48s-1.48-.66-1.48-1.48.66-1.48,1.48-1.48,1.48.66,1.48,1.48Z"></path><path class="cls-4" d="m471.21,154.26c-1.61,0-2.91-1.31-2.91-2.91s1.31-2.91,2.91-2.91,2.91,1.31,2.91,2.91-1.31,2.91-2.91,2.91Zm0-5.39c-1.36,0-2.47,1.11-2.47,2.47s1.11,2.47,2.47,2.47,2.47-1.11,2.47-2.47-1.11-2.47-2.47-2.47Z"></path><circle class="cls-4" cx="552.1" cy="171.64" r="1.48"></circle><path class="cls-4" d="m552.1,174.55c-1.61,0-2.91-1.31-2.91-2.91s1.31-2.91,2.91-2.91,2.91,1.31,2.91,2.91-1.31,2.91-2.91,2.91Zm0-5.39c-1.36,0-2.47,1.11-2.47,2.47s1.11,2.47,2.47,2.47,2.47-1.11,2.47-2.47-1.11-2.47-2.47-2.47Z"></path><polyline class="cls-1" points=".5 200.38 34.61 181.94 92.68 233.1 140.56 210.96 243.34 288.2 306.8 261.53 393.67 184.55 471.13 151.35 552.3 171.79 629.46 137.14 694.82 174.27"></polyline></g></g></svg>